<svg width="28" height="28" viewBox="0 0 28 28" fill="none" xmlns="http://www.w3.org/2000/svg">
<g id="mdi:account-alert-outline">
<path id="Vector" d="M23.3333 14V8.16667H25.6666V15.1667H23.3333M23.3333 19.8333H25.6666V17.5H23.3333M11.6666 15.1667C14.7816 15.1667 21 16.73 21 19.8333V23.3333H2.33331V19.8333C2.33331 16.73 8.55165 15.1667 11.6666 15.1667ZM11.6666 4.66667C12.9043 4.66667 14.0913 5.15834 14.9665 6.03351C15.8416 6.90868 16.3333 8.09566 16.3333 9.33334C16.3333 10.571 15.8416 11.758 14.9665 12.6332C14.0913 13.5083 12.9043 14 11.6666 14C10.429 14 9.24198 13.5083 8.36682 12.6332C7.49164 11.758 6.99998 10.571 6.99998 9.33334C6.99998 8.09566 7.49164 6.90868 8.36682 6.03351C9.24198 5.15834 10.429 4.66667 11.6666 4.66667ZM11.6666 17.3833C8.20165 17.3833 4.54998 19.0867 4.54998 19.8333V21.1167H18.7833V19.8333C18.7833 19.0867 15.1316 17.3833 11.6666 17.3833ZM11.6666 6.88334C11.0169 6.88334 10.3937 7.14146 9.93424 7.60093C9.47477 8.06039 9.21665 8.68356 9.21665 9.33334C9.21665 9.98312 9.47477 10.6063 9.93424 11.0658C10.3937 11.5252 11.0169 11.7833 11.6666 11.7833C12.3164 11.7833 12.9396 11.5252 13.3991 11.0658C13.8585 10.6063 14.1166 9.98312 14.1166 9.33334C14.1166 8.68356 13.8585 8.06039 13.3991 7.60093C12.9396 7.14146 12.3164 6.88334 11.6666 6.88334Z" fill="black"/>
</g>
</svg>
