<svg width="28" height="28" viewBox="0 0 28 28" fill="none" xmlns="http://www.w3.org/2000/svg">
<g id="ci:grid-big-round">
<path id="Vector" d="M18.6667 22.1666C17.7385 22.1666 16.8482 21.7979 16.1918 21.1415C15.5355 20.4851 15.1667 19.5949 15.1667 18.6666C15.1667 17.7384 15.5355 16.8482 16.1918 16.1918C16.8482 15.5354 17.7385 15.1666 18.6667 15.1666C19.595 15.1666 20.4852 15.5354 21.1416 16.1918C21.798 16.8482 22.1667 17.7384 22.1667 18.6666C22.1667 19.5949 21.798 20.4851 21.1416 21.1415C20.4852 21.7979 19.595 22.1666 18.6667 22.1666ZM9.33337 22.1666C8.40512 22.1666 7.51488 21.7979 6.8585 21.1415C6.20212 20.4851 5.83337 19.5949 5.83337 18.6666C5.83337 17.7384 6.20212 16.8482 6.8585 16.1918C7.51488 15.5354 8.40512 15.1666 9.33337 15.1666C10.2616 15.1666 11.1519 15.5354 11.8082 16.1918C12.4646 16.8482 12.8334 17.7384 12.8334 18.6666C12.8334 19.5949 12.4646 20.4851 11.8082 21.1415C11.1519 21.7979 10.2616 22.1666 9.33337 22.1666ZM18.6667 12.8333C17.7385 12.8333 16.8482 12.4646 16.1918 11.8082C15.5355 11.1518 15.1667 10.2616 15.1667 9.33331C15.1667 8.40506 15.5355 7.51482 16.1918 6.85844C16.8482 6.20206 17.7385 5.83331 18.6667 5.83331C19.595 5.83331 20.4852 6.20206 21.1416 6.85844C21.798 7.51482 22.1667 8.40506 22.1667 9.33331C22.1667 10.2616 21.798 11.1518 21.1416 11.8082C20.4852 12.4646 19.595 12.8333 18.6667 12.8333ZM9.33337 12.8333C8.40512 12.8333 7.51488 12.4646 6.8585 11.8082C6.20212 11.1518 5.83337 10.2616 5.83337 9.33331C5.83337 8.40506 6.20212 7.51482 6.8585 6.85844C7.51488 6.20206 8.40512 5.83331 9.33337 5.83331C10.2616 5.83331 11.1519 6.20206 11.8082 6.85844C12.4646 7.51482 12.8334 8.40506 12.8334 9.33331C12.8334 10.2616 12.4646 11.1518 11.8082 11.8082C11.1519 12.4646 10.2616 12.8333 9.33337 12.8333Z" fill="black"/>
</g>
</svg>
