<svg width="20" height="20" viewBox="0 0 20 20" fill="none" xmlns="http://www.w3.org/2000/svg">
<g id="akar-icons:linkedin-box-fill" clip-path="url(#clip0_3_862)">
<path id="Vector" fill-rule="evenodd" clip-rule="evenodd" d="M0.833252 2.36504C0.833252 1.95882 0.994624 1.56923 1.28187 1.28199C1.56911 0.994748 1.9587 0.833376 2.36492 0.833376H17.6333C17.8346 0.833047 18.034 0.872428 18.22 0.949265C18.4061 1.0261 18.5752 1.13888 18.7176 1.28116C18.8601 1.42343 18.973 1.5924 19.0501 1.77838C19.1271 1.96437 19.1667 2.16373 19.1666 2.36504V17.6334C19.1668 17.8347 19.1273 18.0341 19.0504 18.2202C18.9735 18.4063 18.8606 18.5754 18.7183 18.7178C18.5759 18.8602 18.4069 18.9732 18.2209 19.0502C18.0348 19.1272 17.8354 19.1668 17.6341 19.1667H2.36492C2.16371 19.1667 1.96447 19.1271 1.77858 19.05C1.5927 18.973 1.42381 18.8601 1.28157 18.7178C1.13933 18.5755 1.02653 18.4065 0.949604 18.2206C0.87268 18.0347 0.833143 17.8354 0.833252 17.6342V2.36504ZM8.08992 7.82338H10.5724V9.07004C10.9308 8.35338 11.8474 7.70838 13.2249 7.70838C15.8658 7.70838 16.4916 9.13588 16.4916 11.755V16.6067H13.8191V12.3517C13.8191 10.86 13.4608 10.0184 12.5508 10.0184C11.2883 10.0184 10.7633 10.9259 10.7633 12.3517V16.6067H8.08992V7.82338ZM3.50659 16.4925H6.17992V7.70838H3.50659V16.4917V16.4925ZM6.56242 4.84338C6.56746 5.07227 6.52673 5.29987 6.44262 5.5128C6.35851 5.72574 6.23271 5.91974 6.07261 6.0834C5.91251 6.24707 5.72133 6.3771 5.5103 6.46588C5.29926 6.55466 5.07262 6.60039 4.84367 6.60039C4.61472 6.60039 4.38808 6.55466 4.17704 6.46588C3.966 6.3771 3.77483 6.24707 3.61473 6.0834C3.45463 5.91974 3.32883 5.72574 3.24472 5.5128C3.16061 5.29987 3.11988 5.07227 3.12492 4.84338C3.13481 4.39409 3.32024 3.96654 3.64149 3.65228C3.96274 3.33803 4.39427 3.16206 4.84367 3.16206C5.29307 3.16206 5.7246 3.33803 6.04585 3.65228C6.3671 3.96654 6.55253 4.39409 6.56242 4.84338Z" fill="black"/>
</g>
<defs>
<clipPath id="clip0_3_862">
<rect width="20" height="20" fill="white"/>
</clipPath>
</defs>
</svg>
