<svg width="30" height="30" viewBox="0 0 30 30" fill="none" xmlns="http://www.w3.org/2000/svg">
<g id="bxs:phone">
<path id="Vector" d="M25.6091 21.4251L20.5279 16.8051C20.2877 16.5867 19.972 16.4703 19.6476 16.4803C19.3232 16.4904 19.0154 16.6261 18.7891 16.8588L15.7979 19.9351C15.0779 19.7976 13.6304 19.3463 12.1404 17.8601C10.6504 16.3688 10.1991 14.9176 10.0654 14.2026L13.1391 11.2101C13.3721 10.984 13.508 10.6761 13.5181 10.3516C13.5281 10.027 13.4115 9.71136 13.1929 9.4713L8.5741 4.3913C8.35541 4.1505 8.05145 4.00443 7.72679 3.98413C7.40214 3.96382 7.08235 4.07088 6.83535 4.28255L4.12285 6.6088C3.90674 6.8257 3.77775 7.11437 3.76035 7.42005C3.7416 7.73255 3.3841 15.1351 9.1241 20.8776C14.1316 25.8838 20.4041 26.2501 22.1316 26.2501C22.3841 26.2501 22.5391 26.2426 22.5804 26.2401C22.886 26.2229 23.1745 26.0934 23.3904 25.8763L25.7154 23.1626C25.9279 22.9163 26.0357 22.5968 26.0159 22.2722C25.996 21.9475 25.85 21.6435 25.6091 21.4251Z" fill="black"/>
</g>
</svg>
